<svg xmlns="http://www.w3.org/2000/svg" viewBox="0 0 860 330" width="860" height="330" font-family="system-ui, -apple-system, 'Segoe UI', Roboto, sans-serif" role="img" aria-label="Throughput">
<title>Throughput</title>
<text x="70" y="22" fill="#e6edf3" font-size="15" font-weight="600">Throughput</text>
<text x="70" y="39" fill="#8b949e" font-size="11.5">all clients together; the target is 200 ops/s</text>
<line x1="70" x2="88" y1="48" y2="48" stroke="#8b949e" stroke-width="2.4" stroke-dasharray="6 4"/>
<text x="93" y="52" fill="#8b949e" font-size="11">target</text>
<line x1="144" x2="162" y1="48" y2="48" stroke="#58a6ff" stroke-width="2.4"/>
<text x="167" y="52" fill="#8b949e" font-size="11">achieved</text>
<line x1="230" x2="248" y1="48" y2="48" stroke="#58a6ff" stroke-width="2.4" stroke-dasharray="5 4"/>
<text x="253" y="52" fill="#8b949e" font-size="11">D1 delete 1 pod</text>
<line x1="363" x2="381" y1="48" y2="48" stroke="#ff7b72" stroke-width="2.4" stroke-dasharray="5 4"/>
<text x="386" y="52" fill="#8b949e" font-size="11">D7 delete 2 pods</text>
<line x1="503" x2="521" y1="48" y2="48" stroke="#3fb950" stroke-width="2.4" stroke-dasharray="5 4"/>
<text x="526" y="52" fill="#8b949e" font-size="11">D5 volume and pod lost</text>
<line x1="70" x2="88" y1="62" y2="62" stroke="#d29922" stroke-width="2.4" stroke-dasharray="5 4"/>
<text x="93" y="66" fill="#8b949e" font-size="11">D3 isolate 3 min (no effect)</text>
<text x="453" y="322" text-anchor="middle" fill="#8b949e" font-size="11.5">hours into the run</text>
<text transform="translate(16 169) rotate(-90)" text-anchor="middle" fill="#8b949e" font-size="11.5">operations per second</text>
<line x1="70" x2="836" y1="280.0" y2="280.0" stroke="#30363d" stroke-width="1"/>
<text x="62" y="284.0" text-anchor="end" fill="#8b949e" font-size="11">0</text>
<line x1="70" x2="836" y1="233.8" y2="233.8" stroke="#30363d" stroke-width="1"/>
<text x="62" y="237.8" text-anchor="end" fill="#8b949e" font-size="11">50</text>
<line x1="70" x2="836" y1="187.5" y2="187.5" stroke="#30363d" stroke-width="1"/>
<text x="62" y="191.5" text-anchor="end" fill="#8b949e" font-size="11">100</text>
<line x1="70" x2="836" y1="141.2" y2="141.2" stroke="#30363d" stroke-width="1"/>
<text x="62" y="145.2" text-anchor="end" fill="#8b949e" font-size="11">150</text>
<line x1="70" x2="836" y1="95.0" y2="95.0" stroke="#30363d" stroke-width="1"/>
<text x="62" y="99.0" text-anchor="end" fill="#8b949e" font-size="11">200</text>
<line x1="70.0" x2="70.0" y1="58" y2="280" stroke="#30363d" stroke-width="1" stroke-dasharray="2 4"/>
<text x="70.0" y="296" text-anchor="middle" fill="#8b949e" font-size="11">0</text>
<line x1="188.6" x2="188.6" y1="58" y2="280" stroke="#30363d" stroke-width="1" stroke-dasharray="2 4"/>
<text x="188.6" y="296" text-anchor="middle" fill="#8b949e" font-size="11">0.1</text>
<line x1="307.2" x2="307.2" y1="58" y2="280" stroke="#30363d" stroke-width="1" stroke-dasharray="2 4"/>
<text x="307.2" y="296" text-anchor="middle" fill="#8b949e" font-size="11">0.2</text>
<line x1="425.8" x2="425.8" y1="58" y2="280" stroke="#30363d" stroke-width="1" stroke-dasharray="2 4"/>
<text x="425.8" y="296" text-anchor="middle" fill="#8b949e" font-size="11">0.3</text>
<line x1="544.4" x2="544.4" y1="58" y2="280" stroke="#30363d" stroke-width="1" stroke-dasharray="2 4"/>
<text x="544.4" y="296" text-anchor="middle" fill="#8b949e" font-size="11">0.4</text>
<line x1="663.0" x2="663.0" y1="58" y2="280" stroke="#30363d" stroke-width="1" stroke-dasharray="2 4"/>
<text x="663.0" y="296" text-anchor="middle" fill="#8b949e" font-size="11">0.5</text>
<line x1="781.5" x2="781.5" y1="58" y2="280" stroke="#30363d" stroke-width="1" stroke-dasharray="2 4"/>
<text x="781.5" y="296" text-anchor="middle" fill="#8b949e" font-size="11">0.6</text>
<line x1="70" x2="836" y1="280" y2="280" stroke="#8b949e"/>
<line x1="70" x2="836" y1="95.0" y2="95.0" stroke="#8b949e" stroke-width="1.4" stroke-dasharray="6 4"/>
<polyline points="100.4,95.0 110.3,95.0 120.5,95.0 130.5,95.0 140.7,95.0 150.7,95.0 160.9,95.0 170.8,95.0 181.1,95.0 191.0,95.0 201.2,95.0 211.2,95.0 221.4,95.0 231.4,95.0 241.6,95.0 251.6,95.0 261.7,95.0 271.7,95.0 281.9,95.0 291.9,102.7 302.1,102.7 312.1,95.2 322.3,95.2 332.3,95.1 342.5,95.1 352.5,120.6 362.7,120.6 372.6,122.4 382.8,122.4 392.8,96.6 403.0,96.6 412.9,96.5 423.2,96.5 433.1,104.3 443.3,104.3 453.3,105.2 463.5,105.2 473.5,96.8 483.6,96.8 493.6,96.8 503.7,96.8 513.7,96.5 533.8,96.4 543.7,96.4 563.8,96.1 573.8,96.0 584.0,96.0 593.9,96.0 604.1,96.0 614.1,96.4 624.3,96.0 634.2,96.0 644.4,95.9 654.4,95.9 664.6,95.9 674.6,95.9 684.8,95.8 694.8,95.8 705.0,95.8 714.9,95.8 725.1,95.6 735.1,95.6 745.3,95.5 755.3,95.5 765.5,95.8 775.5,95.8 785.7,95.8 795.6,95.8 805.9,95.6 815.9,95.6 826.0,95.8 836.0,95.8" fill="none" stroke="#58a6ff" stroke-width="1.8" stroke-linejoin="round" stroke-linecap="round"/>
<line x1="270.9" x2="270.9" y1="58" y2="280" stroke="#58a6ff" stroke-width="1.4" stroke-dasharray="5 4"/>
<line x1="343.7" x2="343.7" y1="58" y2="280" stroke="#ff7b72" stroke-width="1.4" stroke-dasharray="5 4"/>
<line x1="421.5" x2="421.5" y1="58" y2="280" stroke="#3fb950" stroke-width="1.4" stroke-dasharray="5 4"/>
<line x1="494.3" x2="494.3" y1="58" y2="280" stroke="#d29922" stroke-width="1.4" stroke-dasharray="5 4"/>
</svg>
